<svg id="Layer_1" data-name="Layer 1" xmlns="http://www.w3.org/2000/svg" viewBox="0 0 51.23 33.48"><defs><style>.cls-1{fill:#ffce1f;}.cls-2{fill:#c66626;}.cls-3{fill:#d6821e;opacity:0.44;}.cls-4,.cls-7{fill:#fff;}.cls-5{fill:#96421e;}.cls-6{fill:#662610;}.cls-7{stroke:#9fb1ff;stroke-width:1.5px;}.cls-7,.cls-8{stroke-linecap:round;stroke-linejoin:round;}.cls-8{fill:none;stroke:#ffc33e;}.cls-9{fill:#ff4e00;}.cls-10{fill:#ffe000;}</style></defs><title>Confetti-Battlefy-Emoji</title><path class="cls-1" d="M899.29,1412.75a69.6,69.6,0,0,1-21.6-5.73,0.75,0.75,0,0,1,0-1.35c0.14-.07,13.63-7,17.83-10.9a0.75,0.75,0,0,1,.51-0.2,0.73,0.73,0,0,1,.23,0,0.75,0.75,0,0,1,.5.57l3.33,16.69a0.75,0.75,0,0,1-.74.9h0Z" transform="translate(-876.5 -1382.67)"/><path class="cls-2" d="M896,1395.31l3.33,16.69a68.13,68.13,0,0,1-21.33-5.67s13.67-7,18-11m0-1.5a1.5,1.5,0,0,0-1,.4c-4.13,3.82-17.53,10.72-17.67,10.79a1.5,1.5,0,0,0,.06,2.7,69,69,0,0,0,21.86,5.8h0.1a1.5,1.5,0,0,0,1.47-1.79L897.47,1395a1.5,1.5,0,0,0-1.47-1.21h0Z" transform="translate(-876.5 -1382.67)"/><path class="cls-3" d="M898.12,1407.92c-6.38.3-14-1.46-18.12-2.59-1.23.63-2,1-2,1a68.13,68.13,0,0,0,21.33,5.67Z" transform="translate(-876.5 -1382.67)"/><path class="cls-4" d="M897,1400.35l-1-5a61.52,61.52,0,0,1-9.27,6.23Z" transform="translate(-876.5 -1382.67)"/><path class="cls-2" d="M902.29,1402.47c1.1,5.58.18,10.53-2.07,11.06s-5-3.55-6.07-9.13-0.18-10.53,2.07-11.06S901.18,1396.89,902.29,1402.47Z" transform="translate(-876.5 -1382.67)"/><path class="cls-5" d="M901,1403.36c-1-4.82-3.34-8.4-5.49-8.39-0.95,2-1.16,5.56-.4,9.43,0.85,4.3,2.67,7.71,4.48,8.8C901.28,1411.86,901.91,1407.82,901,1403.36Z" transform="translate(-876.5 -1382.67)"/><path class="cls-6" d="M894.69,1399.37a23,23,0,0,0,.45,5,21.87,21.87,0,0,0,1.71,5.25c1.43-.63,2.27-2.45,2-4.71C898.48,1402.28,896.7,1400,894.69,1399.37Z" transform="translate(-876.5 -1382.67)"/><path class="cls-7" d="M896.81,1396.64a21.74,21.74,0,0,0,3.15-4.17" transform="translate(-876.5 -1382.67)"/><path class="cls-7" d="M905.81,1386.64a11.21,11.21,0,0,0,1.36-2.14" transform="translate(-876.5 -1382.67)"/><path class="cls-8" d="M903,1397.27a6.18,6.18,0,0,0,4.85-2.71,8.55,8.55,0,0,0,.68-1.27,14.4,14.4,0,0,0,1-3,0.76,0.76,0,0,0-.27-0.92,0.62,0.62,0,0,0-.42,0,3,3,0,0,0-1.44,1.68,2.3,2.3,0,0,0-.25,1.36,1.92,1.92,0,0,0,1.5,1.31,3.47,3.47,0,0,0,3.64-1.45" transform="translate(-876.5 -1382.67)"/><path class="cls-7" d="M910.67,1399.5a12,12,0,0,1,3.17-.17" transform="translate(-876.5 -1382.67)"/><path class="cls-7" d="M905,1404.33l4,0.52" transform="translate(-876.5 -1382.67)"/><path class="cls-8" d="M906.09,1410.07a9.14,9.14,0,0,0,2.65,2.38,2,2,0,0,0,1.29.37,0.82,0.82,0,0,0,.71-1c-0.21-.59-1.12-0.48-1.58,0a2.24,2.24,0,0,0,1.18,3.84" transform="translate(-876.5 -1382.67)"/><path class="cls-8" d="M918.84,1397.3a9.16,9.16,0,0,0,2.6,0,4.35,4.35,0,0,0,2.34-1,2.16,2.16,0,0,0,.6-2.35,4.11,4.11,0,0,0-2.87,2.92,3,3,0,0,0,.16,2,1.93,1.93,0,0,0,1.64,1.09,3.21,3.21,0,0,0,1.07-.24l2.86-1" transform="translate(-876.5 -1382.67)"/><ellipse class="cls-9" cx="37.75" cy="28.46" rx="1" ry="1.17"/><ellipse class="cls-10" cx="38.17" cy="19.75" rx="0.67" ry="0.75"/><ellipse class="cls-10" cx="40.42" cy="8.42" rx="1.08" ry="1.25"/><ellipse class="cls-9" cx="27" cy="11.17" rx="1.08" ry="0.67"/><ellipse class="cls-10" cx="36.17" cy="3.83" rx="0.83" ry="0.75"/><ellipse class="cls-9" cx="25.25" cy="0.83" rx="1.25" ry="0.83"/><ellipse class="cls-10" cx="15.17" cy="7.33" rx="1.17" ry="1"/><path class="cls-8" d="M908.86,1407.53a3.85,3.85,0,0,0,5,.54,20.5,20.5,0,0,0,1.64-1.61,2.6,2.6,0,0,1,2.06-.84l-0.59,3.83a7.79,7.79,0,0,1,2.52-1,0.58,0.58,0,0,1,.4,0,0.82,0.82,0,0,1,.23.69,1.6,1.6,0,0,0,1.23,1.24,4.69,4.69,0,0,0,1.84,0" transform="translate(-876.5 -1382.67)"/></svg>