<svg id="Layer_1" data-name="Layer 1" xmlns="http://www.w3.org/2000/svg" viewBox="0 0 80.95 65.71"><defs><style>.cls-1{fill:#9e0a0a;}.cls-2{fill:#602b0e;}.cls-3{fill:#e81313;stroke:#fff;stroke-miterlimit:10;stroke-width:2px;}.cls-4{fill:#ffce00;}.cls-5{fill:#c67a00;}.cls-6{fill:#ffdf5a;}</style></defs><title>Crown-Battlefy-Emoji</title><path class="cls-1" d="M969.08,408.5l-13.65-15,1-.65c0.58-.39,14.36-9.56,30-9.56s32.47,8.81,33.18,9.18l1.08,0.57L1004,413.49Z" transform="translate(-948.24 -357.82)"/><path class="cls-2" d="M986.42,384.24c15.55,0,32.71,9.07,32.71,9.07l-15.55,19.11-34-4.86-12.63-13.93s13.93-9.39,29.47-9.39m0-2c-16,0-30,9.34-30.59,9.73l-1.91,1.29,1.55,1.71L968.1,408.9l0.48,0.53,0.71,0.1,34,4.86,1.12,0.16,0.71-.88,15.55-19.11,1.54-1.89-2.16-1.14c-0.72-.38-17.79-9.3-33.64-9.3h0Z" transform="translate(-948.24 -357.82)"/><polygon class="cls-3" points="4.7 38.41 1.09 48.04 5.5 56.53 8.92 47.82 4.7 38.41"/><polygon class="cls-3" points="76.47 38.42 72.06 47.71 75.72 56.54 79.87 48.15 76.47 38.42"/><path class="cls-4" d="M954.1,422.53l-3.26-63.42,0.83-.18a5.17,5.17,0,0,1,1-.09c1.72,0,7.19.79,7.58,10.61h0.41c1.79,0,6,.71,6,7.29,0,5.9-3.58,6.54-5.13,6.54a7.46,7.46,0,0,1-1.43-.15c0.07,2.59.58,8.49,3.8,11.87a8.21,8.21,0,0,0,6.2,2.51c4.46,0,7.77-2.41,9.84-7.17a24.76,24.76,0,0,0,1.75-6.6,6.72,6.72,0,0,1-5.62-7,6.53,6.53,0,0,1,5.82-6.83c-0.16-2-.2-6.41,2-9a6,6,0,0,1,4.77-2.06,6.11,6.11,0,0,1,4.91,2.13c2.21,2.62,2.11,7,1.92,9a6.53,6.53,0,0,1,5.8,6.83,6.72,6.72,0,0,1-5.62,7,24.76,24.76,0,0,0,1.75,6.6c2.07,4.76,5.38,7.17,9.84,7.17a8.21,8.21,0,0,0,6.2-2.52c3.22-3.39,3.73-9.28,3.8-11.86a7.45,7.45,0,0,1-1.43.15c-1.54,0-5.13-.64-5.13-6.54,0-6.58,4.17-7.29,6-7.29h0.41c0.39-9.83,5.86-10.61,7.58-10.61a5.17,5.17,0,0,1,1,.09l0.83,0.18-3.26,63.42H954.1Z" transform="translate(-948.24 -357.82)"/><path class="cls-5" d="M988.67,359.82c7.61,0,5.71,11,5.71,11s5.92,0,5.92,5.92-5.71,6.13-5.71,6.13,0.85,15.65,12.69,15.65,11-16.7,11-16.7a7,7,0,0,1-2.43.47c-1.87,0-4.13-.95-4.13-5.54,0-5.46,3.09-6.29,5-6.29a5.93,5.93,0,0,1,1.39.15c0-9.76,4.69-10.76,6.6-10.76a4.24,4.24,0,0,1,.8.07l-3.17,61.62H955l-3.17-61.62a4.23,4.23,0,0,1,.8-0.07c1.91,0,6.6,1,6.6,10.76a5.92,5.92,0,0,1,1.39-.15c1.87,0,5,.82,5,6.29,0,4.59-2.26,5.54-4.13,5.54a7,7,0,0,1-2.43-.47s-0.85,16.7,11,16.7,12.69-15.65,12.69-15.65-5.71-.21-5.71-6.13,5.92-5.92,5.92-5.92-1.69-11,5.71-11m0-2a7,7,0,0,0-5.53,2.41c-2.2,2.57-2.44,6.49-2.34,8.88a7.48,7.48,0,0,0-5.76,7.62,7.64,7.64,0,0,0,3.88,7,8.79,8.79,0,0,0,1.63.7c-0.57,3.7-2.71,12-10.49,12a7.15,7.15,0,0,1-5.48-2.21c-2.44-2.57-3.27-7-3.48-10h0.39c3.84,0,6.13-2.82,6.13-7.54,0-7-4.39-8.12-6.42-8.27-0.74-9.82-6.63-10.62-8.52-10.62a6.1,6.1,0,0,0-1.21.11l-1.67.35,0.09,1.7,3.17,61.62,0.1,1.9h71l0.1-1.9,3.17-61.62,0.09-1.7-1.67-.35a6.1,6.1,0,0,0-1.21-.11c-1.89,0-7.78.81-8.52,10.62a6.54,6.54,0,0,0-4,1.58c-1.63,1.44-2.45,3.69-2.45,6.69,0,4.72,2.29,7.54,6.13,7.54h0.38c-0.18,2.77-.89,7.34-3.48,10a7.15,7.15,0,0,1-5.47,2.2c-7.79,0-9.93-8.35-10.49-12a8.79,8.79,0,0,0,1.63-.7,7.64,7.64,0,0,0,3.88-7,7.48,7.48,0,0,0-5.73-7.62c0.13-2.38-.05-6.24-2.22-8.81a7.15,7.15,0,0,0-5.68-2.48h0Z" transform="translate(-948.24 -357.82)"/><path class="cls-6" d="M989,359.84l-0.33,0c-7.4,0-5.71,11-5.71,11s-5.92,0-5.92,5.92,5.71,6.13,5.71,6.13-0.85,15.65-12.69,15.65-11-16.7-11-16.7,6.55,2.75,6.55-5.07-6.34-6.13-6.34-6.13c0-12.26-7.4-10.69-7.4-10.69L955,421.53h34V359.84Z" transform="translate(-948.24 -357.82)"/><polygon class="cls-3" points="40.75 38.4 34.51 47.9 41 56.54 46.9 47.96 40.75 38.4"/></svg>